<?xml version="1.0" encoding="UTF-8"?>
<svg id="Layer_1" xmlns="http://www.w3.org/2000/svg" version="1.1" viewBox="0 0 211.32 211.32">
  <!-- Generator: Adobe Illustrator 29.1.0, SVG Export Plug-In . SVG Version: 2.1.0 Build 142)  -->
  <defs>
    <style>
      .st0 {
        fill: #135740;
      }

      .st1 {
        fill: #fff;
      }

      .st2 {
        fill: #4d8c40;
      }
    </style>
  </defs>
  <path class="st1" d="M186.69,119.42c-20.54,2.55-35.08-4.76-41.53-8.07l-.62-18.65c7.11,2.62,15.36,4.78,15.36,4.78l19.61-79.54s-11.33,12.65-43.34,12.65h-35.62c-18.82,0-35.26,12.72-39.98,30.94l-3.79,14.61c-22.88.88-32.48,17.03-32.48,17.03,0,0,21.24-3.37,53.43,13.41,11.59,6.05,22.05,11.53,31.37,15.8l-5.28,21.01h-17.36l4.64-18.48c-24.43-14.15-41.85-17.56-41.85-17.56l-21.52,85.09s11.33-12.65,43.33-12.65h37.6c19,0,35.58-12.92,40.21-31.35l3.44-13.69c26.49,1.57,31.87-11.01,34.34-15.33"/>
  <path class="st0" d="M170.74,30.09s-8.69,5.92-34.56,5.92h-35.45c-16.56,0-31,11.26-35.04,27.32l-3.17,12.31c5.33,0,10.83.7,16.47,2.07l9.63-18.17c2.6-5.91,8.89-8.89,14.25-6.57,4.33,1.88,9.74,5.29,16.83,11.49,3.32,2.9,6.91,4.6,10.64,5.38-1.71-2.76-7.23-8.11-10.37-11.53l15.87,7.05c3.99,2.25,5.92,4.95,6.16,9.12l.85,11.68c4.58,1.86,8.8,3.31,12.68,4.42l15.21-60.51Z"/>
  <path class="st2" d="M139.58,109.02l-.24-7.79c-19.59-13.19-38.07-19.24-50.17-19.79,7.4,2.8,15.55,6.9,24.44,12.73,9.58,6.28,18.22,11.13,25.97,14.84"/>
  <path class="st0" d="M173.49,124.99c-11.97.29-30.04-5-61.5-25.62-43.93-28.79-66.63-15.48-72.72-10.87,8.04-.1,24.23,3.44,63.58,24.55,4.47,2.4,8.67,4.46,12.64,6.26l-5.42,21.54c-1.18,4.68-5.38,7.96-10.2,7.96h-20.33l5.32-21.18c-12.42-6.9-23.07-11.05-31.69-13.52l-16.63,66.19s8.68-5.92,34.56-5.92h37.53c16.56,0,31-11.26,35.04-27.32l4.51-17.93c12.23,1.29,20.1-1.35,25.31-4.13"/>
  <path class="st1" d="M142.47,177.22h-1.53v4.2h-1.45v-4.2h-1.53v-1.16h4.51v1.16ZM150.13,181.42h-1.44v-4.19h-.16l-1.32,2.93h-1.01l-1.33-2.99h-.19v4.25h-1.36v-5.36h2.33l1.08,2.62,1.13-2.62h2.27v5.36Z"/>
</svg>